# xmcd CD database file
#
# Track frame offsets:
#	182
#	19532
#	30707
#	37382
#	46232
#	54482
#	66932
#	77582
#	88457
#	92545
#	102632
#	107882
#	119882
#	128620
#	133870
#	140282
#	151907
#	156145
#	161732
#	168332
#	185957
#	197657
#	204557
#	210932
#	214570
#	219857
#	227132
#	230507
#	240782
#	244982
#
# Disc length: 3314 seconds
#
# Revision: 2
# Processed by: cddbd v1.5.2PL0 Copyright (c) Steve Scherf et al.
# Submitted via: CDex 1.70beta2
#
DISCID=ac0cf01e
DTITLE=Various Composers - Tanzmusik um 1600
DYEAR=1960
DGENRE=Rhythmic Soul
TTITLE0=Praetorius, Michael - Sechs Daentze: Entreée - Courante
TTITLE1=Praetorius, Michael - Sechs Daentze: Gavotte
TTITLE2=Praetorius, Michael - Sechs Daentze: Spagnoletta
TTITLE3=Praetorius, Michael - Sechs Daentze: La Bouree
TTITLE4=Praetorius, Michael - Sechs Daentze: Ballet
TTITLE5=Praetorius, Michael - Sechs Daentze: Volte
TTITLE6=Widmann, Erasmus - Daenz und Gaillarden: Sophia
TTITLE7=Widmann, Erasmus - Daenz und Gaillarden: Clara
TTITLE8=Widmann, Erasmus - Daenz und Gaillarden: Magdalena
TTITLE9=Widmann, Erasmus - Daenz und Gaillarden: Agatha
TTITLE10=Widmann, Erasmus - Daenz und Gaillarden:Regina
TTITLE11=Schein, Johann Herrmann - Suite Nr. 4 in D: Pavane
TTITLE12=Schein, Johann Herrmann - Suite Nr. 4 in D: Galliarde
TTITLE13=Schein, Johann Herrmann - Suite Nr. 4 in D: Courante
TTITLE14=Schein, Johann Herrmann - Suite Nr. 4 in D: Allemande - Tripla
TTITLE15=Schein, Johann Herrmann - Suite Nr. 5 in G: Pavane
TTITLE16=Schein, Johann Herrmann - Suite Nr. 5 in G: Galliarde
TTITLE17=Schein, Johann Herrmann - Suite Nr. 5 in G: Courante
TTITLE18=Schein, Johann Herrmann - Suite Nr. 5 in G: Allemande - Tripla
TTITLE19=Schein, Johann Herrmann - Suite Nr. 3 in A: Pavane
TTITLE20=Schein, Johann Herrmann - Suite Nr. 3 in A: Galliarde
TTITLE21=Schein, Johann Herrmann - Suite Nr. 3 in A: Courante
TTITLE22=Schein, Johann Herrmann - Suite Nr. 3 in A: Allemande - Tripla
TTITLE23=Praetorius, Michael - Galliarde de Monsieur Wustron
TTITLE24=Praetorius, Michael - Galliarde de la guerre
TTITLE25=Praetorius, Michael - Reprinse
TTITLE26=Haussmann, Valentin - Tantz
TTITLE27=Haussmann, Valentin - Paduan
TTITLE28=Haussmann, Valentin - Galliarde
TTITLE29=Haussmann, Valentin - Catkantei
EXTD=Track 1- 23 Collegium Terpsichore 1960\nFritz Neumeyer\nTrack 24-30 Ulsamer Collegium 1973\nJosef Ulsamer YEAR: 1960
EXTT0=
EXTT1=
EXTT2=
EXTT3=
EXTT4=
EXTT5=
EXTT6=
EXTT7=
EXTT8=
EXTT9=
EXTT10=
EXTT11=
EXTT12=
EXTT13=
EXTT14=
EXTT15=
EXTT16=
EXTT17=
EXTT18=
EXTT19=
EXTT20=
EXTT21=
EXTT22=
EXTT23=
EXTT24=
EXTT25=
EXTT26=
EXTT27=
EXTT28=
EXTT29=
PLAYORDER=
